<mxfile host="app.diagrams.net" modified="2022-05-30T06:32:09.076Z" agent="5.0 (Macintosh; Intel Mac OS X 10_15_7) AppleWebKit/537.36 (KHTML, like Gecko) Chrome/101.0.4951.64 Safari/537.36" etag="LTsz4z4X_7OM-mLliKFO" version="18.0.7" type="github">
  <diagram id="2Kw0UDBsUmubdd8x-OYx" name="Page-1">
    <mxGraphModel dx="1333" dy="676" grid="1" gridSize="10" guides="1" tooltips="1" connect="1" arrows="1" fold="1" page="1" pageScale="1" pageWidth="827" pageHeight="1169" math="0" shadow="0">
      <root>
        <mxCell id="0" />
        <mxCell id="1" parent="0" />
        <mxCell id="W-_6HZPZvxM8ELVaEarW-2" value="客户端" style="rounded=0;whiteSpace=wrap;html=1;" vertex="1" parent="1">
          <mxGeometry x="60" y="70" width="120" height="60" as="geometry" />
        </mxCell>
        <mxCell id="W-_6HZPZvxM8ELVaEarW-3" value="web-server" style="rounded=0;whiteSpace=wrap;html=1;" vertex="1" parent="1">
          <mxGeometry x="380" y="70" width="120" height="60" as="geometry" />
        </mxCell>
        <mxCell id="W-_6HZPZvxM8ELVaEarW-5" value="" style="endArrow=none;dashed=1;html=1;rounded=0;entryX=0.5;entryY=1;entryDx=0;entryDy=0;" edge="1" parent="1" target="W-_6HZPZvxM8ELVaEarW-2">
          <mxGeometry width="50" height="50" relative="1" as="geometry">
            <mxPoint x="120" y="760" as="sourcePoint" />
            <mxPoint x="530" y="240" as="targetPoint" />
          </mxGeometry>
        </mxCell>
        <mxCell id="W-_6HZPZvxM8ELVaEarW-6" value="" style="endArrow=none;dashed=1;html=1;rounded=0;entryX=0.5;entryY=1;entryDx=0;entryDy=0;" edge="1" parent="1">
          <mxGeometry width="50" height="50" relative="1" as="geometry">
            <mxPoint x="439.63" y="760.0000000000002" as="sourcePoint" />
            <mxPoint x="439.63" y="130" as="targetPoint" />
          </mxGeometry>
        </mxCell>
        <mxCell id="W-_6HZPZvxM8ELVaEarW-8" value="chat-server" style="rounded=0;whiteSpace=wrap;html=1;" vertex="1" parent="1">
          <mxGeometry x="660" y="70" width="120" height="60" as="geometry" />
        </mxCell>
        <mxCell id="W-_6HZPZvxM8ELVaEarW-9" value="" style="endArrow=none;dashed=1;html=1;rounded=0;entryX=0.5;entryY=1;entryDx=0;entryDy=0;" edge="1" parent="1">
          <mxGeometry width="50" height="50" relative="1" as="geometry">
            <mxPoint x="719.6299999999999" y="760.0000000000002" as="sourcePoint" />
            <mxPoint x="719.6299999999999" y="130" as="targetPoint" />
          </mxGeometry>
        </mxCell>
        <mxCell id="W-_6HZPZvxM8ELVaEarW-14" value="" style="endArrow=classic;html=1;rounded=0;" edge="1" parent="1">
          <mxGeometry width="50" height="50" relative="1" as="geometry">
            <mxPoint x="120" y="200" as="sourcePoint" />
            <mxPoint x="720" y="200" as="targetPoint" />
          </mxGeometry>
        </mxCell>
        <mxCell id="W-_6HZPZvxM8ELVaEarW-15" value="&lt;span style=&quot;white-space: pre;&quot;&gt;	&lt;/span&gt;1. 出席" style="text;html=1;align=center;verticalAlign=middle;resizable=0;points=[];autosize=1;strokeColor=none;fillColor=none;" vertex="1" parent="1">
          <mxGeometry x="140" y="180" width="80" height="20" as="geometry" />
        </mxCell>
        <mxCell id="W-_6HZPZvxM8ELVaEarW-16" value="用户" style="shape=umlActor;verticalLabelPosition=bottom;verticalAlign=top;html=1;" vertex="1" parent="1">
          <mxGeometry x="150" y="170" width="20" height="30" as="geometry" />
        </mxCell>
        <mxCell id="W-_6HZPZvxM8ELVaEarW-19" value="" style="endArrow=classic;html=1;rounded=0;" edge="1" parent="1">
          <mxGeometry width="50" height="50" relative="1" as="geometry">
            <mxPoint x="440" y="330" as="sourcePoint" />
            <mxPoint x="720" y="330" as="targetPoint" />
          </mxGeometry>
        </mxCell>
        <mxCell id="W-_6HZPZvxM8ELVaEarW-20" value="" style="endArrow=classic;html=1;rounded=0;" edge="1" parent="1">
          <mxGeometry width="50" height="50" relative="1" as="geometry">
            <mxPoint x="720" y="260" as="sourcePoint" />
            <mxPoint x="120" y="260" as="targetPoint" />
          </mxGeometry>
        </mxCell>
        <mxCell id="W-_6HZPZvxM8ELVaEarW-21" value="2. MQTT下发全量会话" style="text;html=1;align=center;verticalAlign=middle;resizable=0;points=[];autosize=1;strokeColor=none;fillColor=none;" vertex="1" parent="1">
          <mxGeometry x="170" y="240" width="130" height="20" as="geometry" />
        </mxCell>
        <mxCell id="W-_6HZPZvxM8ELVaEarW-22" value="chat.proto" style="swimlane;fontStyle=0;childLayout=stackLayout;horizontal=1;startSize=26;fillColor=none;horizontalStack=0;resizeParent=1;resizeParentMax=0;resizeLast=0;collapsible=1;marginBottom=0;fontColor=default;" vertex="1" parent="1">
          <mxGeometry x="820" y="50" width="320" height="70" as="geometry" />
        </mxCell>
        <mxCell id="W-_6HZPZvxM8ELVaEarW-24" value="HiSingleChat    -&gt;  optional int64 chatGroupId       = 15;&#xa;HiGroupChat -&gt; optional int64 chatGroupId       = 21;" style="text;strokeColor=none;fillColor=none;align=left;verticalAlign=top;spacingLeft=4;spacingRight=4;overflow=hidden;rotatable=0;points=[[0,0.5],[1,0.5]];portConstraint=eastwest;labelBackgroundColor=default;" vertex="1" parent="W-_6HZPZvxM8ELVaEarW-22">
          <mxGeometry y="26" width="320" height="44" as="geometry" />
        </mxCell>
        <mxCell id="W-_6HZPZvxM8ELVaEarW-32" value="ChatProtocol.java" style="swimlane;fontStyle=0;childLayout=stackLayout;horizontal=1;startSize=26;fillColor=none;horizontalStack=0;resizeParent=1;resizeParentMax=0;resizeLast=0;collapsible=1;marginBottom=0;fontColor=default;" vertex="1" parent="1">
          <mxGeometry x="820" y="140" width="320" height="50" as="geometry" />
        </mxCell>
        <mxCell id="W-_6HZPZvxM8ELVaEarW-33" value="编译协议文件，将新增字段，同步给各端" style="text;strokeColor=none;fillColor=none;align=left;verticalAlign=top;spacingLeft=4;spacingRight=4;overflow=hidden;rotatable=0;points=[[0,0.5],[1,0.5]];portConstraint=eastwest;labelBackgroundColor=default;" vertex="1" parent="W-_6HZPZvxM8ELVaEarW-32">
          <mxGeometry y="26" width="320" height="24" as="geometry" />
        </mxCell>
      </root>
    </mxGraphModel>
  </diagram>
</mxfile>
